# xmcd CD database file
#
# Track frame offsets:
#	150
#	17395
#	38377
#	65101
#	96302
#	112143
#	134749
#	153262
#	168266
#	184781
#	204812
#	219387
#	244734
#	260868
#	281789
#	303636
#	322362
#
# Disc length: 4578 seconds
#
# Revision: 11
# Processed by: cddbd v1.5.1PL0 Copyright (c) Steve Scherf et al.
# Submitted via: CDex 1.51
#
DISCID=0111e011
DTITLE=Boney M. - The Best Of
DYEAR=1900
DGENRE=Oldies
TTITLE0=Rivers Of Babylon
TTITLE1=Ma Baker
TTITLE2=Rasputin
TTITLE3=He Was A Steppenwolf
TTITLE4=Daddy Cool
TTITLE5=Motherless Child
TTITLE6=Brown Girl In The Ring
TTITLE7=Sunny
TTITLE8=No Woman No Cry
TTITLE9=Mary's Boy Child
TTITLE10=Hooray! Hooray! It's A Holi-holiday
TTITLE11=Never Change Lovers In The Middle Of The Night
TTITLE12=Voodoonight
TTITLE13=Still I'm Sad
TTITLE14=Nightflight To Venus
TTITLE15=Heart Of Gold
TTITLE16=Gotta Go Home
EXTD=
EXTT0=
EXTT1=
EXTT2=
EXTT3=
EXTT4=
EXTT5=
EXTT6=
EXTT7=
EXTT8=
EXTT9=
EXTT10=
EXTT11=
EXTT12=
EXTT13=
EXTT14=
EXTT15=
EXTT16=
PLAYORDER=
